<?xml version="1.0" encoding="utf-8"?>
<svg version="1.1" id="Capa_1" x="0px" y="0px" viewBox="181.49 146.285 179.782 176.363" style="enable-background:new 0 0 512 512;" xmlns="http://www.w3.org/2000/svg">
  <path style="fill: rgb(227, 128, 161);" d="M 314.906 316.497 C 300.145 316.497 286.044 310.717 275.201 300.22 C 273.734 298.801 272.345 297.307 271.04 295.748 C 269.734 297.307 268.345 298.801 266.879 300.221 C 256.035 310.717 241.933 316.497 227.173 316.497 C 220.513 316.497 214.041 315.307 207.935 312.962 L 203.118 311.111 L 201.425 306.235 C 195.172 288.228 199.103 267.974 211.361 252.887 C 195.744 241.311 186.913 222.664 188.504 203.669 L 188.935 198.526 L 193.143 195.538 C 202.292 189.041 213.224 185.607 224.757 185.607 C 228.897 185.607 233.051 186.071 237.122 186.976 C 238.734 181.761 241.078 176.801 244.102 172.256 C 249.711 163.827 257.408 157.174 266.36 153.016 L 271.04 150.841 L 275.72 153.016 C 284.672 157.174 292.369 163.828 297.977 172.256 C 301.001 176.8 303.346 181.761 304.958 186.976 C 309.028 186.071 313.182 185.607 317.323 185.607 C 328.855 185.607 339.787 189.041 348.936 195.538 L 353.144 198.526 L 353.575 203.669 C 355.167 222.664 346.335 241.31 330.718 252.887 C 342.977 267.974 346.907 288.228 340.654 306.235 L 338.961 311.111 L 334.144 312.962 C 328.039 315.307 321.566 316.497 314.906 316.497 Z"/>
  <path style="fill: rgb(255, 167, 196);" d="M 318.271 255.721 C 316.251 253.766 314.103 252.031 311.861 250.511 C 314.41 249.594 316.921 248.446 319.363 247.053 C 333.241 239.135 341.509 225.331 342.535 211.063 C 338.066 212.23 332.987 213.053 329.063 212.286 C 330.23 208.483 333.323 204.411 336.441 201.029 C 324.396 195.232 309.547 195.104 296.377 201.74 C 295.617 187.036 288.17 174.218 277.194 166.624 C 275.896 171.314 273.911 176.585 271.039 179.774 C 268.168 176.585 266.182 171.314 264.884 166.624 C 253.909 174.218 246.462 187.036 245.701 201.74 C 232.532 195.104 217.682 195.232 205.638 201.029 C 208.755 204.411 211.849 208.483 213.015 212.286 C 209.091 213.053 204.012 212.23 199.543 211.063 C 200.569 225.331 208.838 239.135 222.715 247.053 C 225.157 248.446 227.669 249.594 230.218 250.511 C 227.975 252.031 225.827 253.766 223.807 255.721 C 212.522 266.645 207.9 281.735 210.164 295.616 C 214.373 293.58 219.292 291.747 223.354 291.752 C 222.926 295.783 220.587 300.466 218.12 304.428 C 232.105 307.431 247.671 303.349 259.151 292.238 C 264.784 286.785 268.752 280.293 271.039 273.433 C 273.325 280.293 277.294 286.785 282.926 292.238 C 294.407 303.349 309.972 307.431 323.958 304.428 C 321.491 300.466 319.151 295.783 318.723 291.752 C 322.786 291.747 327.705 293.581 331.914 295.616 C 334.179 281.735 329.557 266.645 318.271 255.721 Z"/>
  <path style="fill: rgb(206, 78, 125);" d="M 291.588 233.835 L 277.075 233.835 L 287.338 223.572 C 288.314 222.596 288.314 221.013 287.338 220.037 C 286.362 219.061 284.779 219.06 283.802 220.037 L 273.539 230.299 L 273.539 215.785 C 273.539 214.405 272.421 213.285 271.04 213.285 C 269.659 213.285 268.54 214.405 268.54 215.785 L 268.54 230.299 L 258.895 220.654 C 257.918 219.678 256.335 219.678 255.359 220.654 C 254.383 221.63 254.383 223.213 255.359 224.189 L 265.005 233.834 L 251.364 233.834 C 249.983 233.834 248.864 234.953 248.864 236.334 C 248.864 237.714 249.983 238.834 251.364 238.834 L 265.005 238.834 L 255.359 248.479 C 254.383 249.455 254.383 251.038 255.359 252.014 C 255.848 252.502 256.487 252.746 257.127 252.746 C 257.767 252.746 258.407 252.502 258.895 252.014 L 268.54 242.369 L 268.54 256.01 C 268.54 257.39 269.659 258.509 271.04 258.509 C 272.421 258.509 273.539 257.39 273.539 256.01 L 273.539 242.369 L 283.802 252.632 C 284.291 253.12 284.93 253.364 285.57 253.364 C 286.21 253.364 286.85 253.12 287.338 252.632 C 288.314 251.656 288.314 250.073 287.338 249.097 L 277.075 238.834 L 291.589 238.834 C 292.97 238.834 294.088 237.715 294.088 236.335 C 294.089 234.954 292.969 233.835 291.588 233.835 Z"/>
  <g transform="matrix(0.323546, 0, 0, 0.323546, 188.211517, 150.841019)">
    <circle style="fill:#E380A1;" cx="256.001" cy="200.72" r="17.748"/>
    <circle style="fill:#E380A1;" cx="300.906" cy="219.326" r="17.748"/>
    <circle style="fill:#E380A1;" cx="319.511" cy="264.241" r="17.748"/>
    <circle style="fill:#E380A1;" cx="300.906" cy="309.147" r="17.748"/>
    <circle style="fill:#E380A1;" cx="256.001" cy="327.752" r="17.748"/>
    <circle style="fill:#E380A1;" cx="211.095" cy="309.147" r="17.748"/>
    <circle style="fill:#E380A1;" cx="192.49" cy="264.241" r="17.748"/>
    <circle style="fill:#E380A1;" cx="211.095" cy="219.326" r="17.748"/>
  </g>
  <g/>
  <g/>
  <g/>
  <g/>
  <g/>
  <g/>
  <g/>
  <g/>
  <g/>
  <g/>
  <g/>
  <g/>
  <g/>
  <g/>
  <g/>
</svg>